<?xml version="1.0" encoding="UTF-8"?>
<svg width="1080px" height="180px" viewBox="0 0 1080 180" version="1.1" xmlns="http://www.w3.org/2000/svg" xmlns:xlink="http://www.w3.org/1999/xlink">
    <title>网格</title>
    <g id="页面-1" stroke="none" stroke-width="1" fill="none" fill-rule="evenodd">
        <g id="HOME" transform="translate(-180.000000, -1450.000000)" stroke="#2D2D2D">
            <g id="p2备份" transform="translate(0.000000, 830.000000)">
                <g id="网格" transform="translate(180.000000, 620.000000)">
                    <path d="M1079.5,0.5 L1079.5,179.5 L0.5,179.5 L0.5,0.5 L1079.5,0.5 Z" id="矩形"></path>
                    <path d="M1079.5,0.5 L1079.5,29.5 L0.5,29.5 L0.5,0.5 L1079.5,0.5 Z" id="矩形备份-5"></path>
                    <path d="M1079.5,30.5 L1079.5,59.5 L0.5,59.5 L0.5,30.5 L1079.5,30.5 Z" id="矩形备份-6"></path>
                    <path d="M1079.5,60.5 L1079.5,89.5 L0.5,89.5 L0.5,60.5 L1079.5,60.5 Z" id="矩形备份-7"></path>
                    <path d="M1079.5,90.5 L1079.5,119.5 L0.5,119.5 L0.5,90.5 L1079.5,90.5 Z" id="矩形备份-8"></path>
                    <path d="M1079.5,120.5 L1079.5,149.5 L0.5,149.5 L0.5,120.5 L1079.5,120.5 Z" id="矩形备份-9"></path>
                    <path d="M1079.5,150.5 L1079.5,179.5 L0.5,179.5 L0.5,150.5 L1079.5,150.5 Z" id="矩形备份-10"></path>
                    <path d="M59.5,0.5 L59.5,179.5 L0.5,179.5 L0.5,0.5 L59.5,0.5 Z" id="矩形"></path>
                    <path d="M119.5,0.5 L119.5,179.5 L60.5,179.5 L60.5,0.5 L119.5,0.5 Z" id="矩形备份-17"></path>
                    <path d="M179.5,0.5 L179.5,179.5 L120.5,179.5 L120.5,0.5 L179.5,0.5 Z" id="矩形备份-18"></path>
                    <path d="M239.5,0.5 L239.5,179.5 L180.5,179.5 L180.5,0.5 L239.5,0.5 Z" id="矩形备份-19"></path>
                    <path d="M299.5,0.5 L299.5,179.5 L240.5,179.5 L240.5,0.5 L299.5,0.5 Z" id="矩形备份-20"></path>
                    <path d="M359.5,0.5 L359.5,179.5 L300.5,179.5 L300.5,0.5 L359.5,0.5 Z" id="矩形备份-21"></path>
                    <path d="M419.5,0.5 L419.5,179.5 L360.5,179.5 L360.5,0.5 L419.5,0.5 Z" id="矩形备份-22"></path>
                    <path d="M479.5,0.5 L479.5,179.5 L420.5,179.5 L420.5,0.5 L479.5,0.5 Z" id="矩形备份-23"></path>
                    <path d="M539.5,0.5 L539.5,179.5 L480.5,179.5 L480.5,0.5 L539.5,0.5 Z" id="矩形备份-24"></path>
                    <path d="M599.5,0.5 L599.5,179.5 L540.5,179.5 L540.5,0.5 L599.5,0.5 Z" id="矩形备份-25"></path>
                    <path d="M659.5,0.5 L659.5,179.5 L600.5,179.5 L600.5,0.5 L659.5,0.5 Z" id="矩形备份-26"></path>
                    <path d="M719.5,0.5 L719.5,179.5 L660.5,179.5 L660.5,0.5 L719.5,0.5 Z" id="矩形备份-27"></path>
                    <path d="M779.5,0.5 L779.5,179.5 L720.5,179.5 L720.5,0.5 L779.5,0.5 Z" id="矩形备份-28"></path>
                    <path d="M839.5,0.5 L839.5,179.5 L780.5,179.5 L780.5,0.5 L839.5,0.5 Z" id="矩形备份-29"></path>
                    <path d="M899.5,0.5 L899.5,179.5 L840.5,179.5 L840.5,0.5 L899.5,0.5 Z" id="矩形备份-30"></path>
                    <path d="M959.5,0.5 L959.5,179.5 L900.5,179.5 L900.5,0.5 L959.5,0.5 Z" id="矩形备份-31"></path>
                    <path d="M1019.5,0.5 L1019.5,179.5 L960.5,179.5 L960.5,0.5 L1019.5,0.5 Z" id="矩形备份-32"></path>
                </g>
            </g>
        </g>
    </g>
</svg>