<?xml version="1.0" encoding="UTF-8"?>
<svg width="52px" height="52px" viewBox="0 0 52 52" version="1.1" xmlns="http://www.w3.org/2000/svg" xmlns:xlink="http://www.w3.org/1999/xlink">
    <title>btn-</title>
    <g id="页面-1" stroke="none" stroke-width="1" fill="none" fill-rule="evenodd">
        <g id="HOME" transform="translate(-1008.000000, -1557.000000)" fill="#8534F2">
            <g id="p2备份" transform="translate(0.000000, 830.000000)">
                <g id="图+文字轮博" transform="translate(940.000000, 727.000000)">
                    <g id="btn-" transform="translate(68.000000, 0.000000)">
                        <path d="M26,0 C40.3594035,0 52,11.6405965 52,26 C52,40.3594035 40.3594035,52 26,52 C11.6405965,52 0,40.3594035 0,26 C0,11.6405965 11.6405965,0 26,0 Z M29.7071068,17.2928932 C29.3165825,16.9023689 28.6834175,16.9023689 28.2928932,17.2928932 C27.9023689,17.6834175 27.9023689,18.3165825 28.2928932,18.7071068 L35.071,25.485 L15,25.4852814 C14.4477153,25.4852814 14,25.9329966 14,26.4852814 C14,27.0375661 14.4477153,27.4852814 15,27.4852814 L35.071,27.485 L28.2928932,34.263456 C27.9023689,34.6539803 27.9023689,35.2871452 28.2928932,35.6776695 C28.6834175,36.0681938 29.3165825,36.0681938 29.7071068,35.6776695 L38.1923882,27.1923882 L38.2700945,27.1051673 C38.58092,26.7126497 38.5550179,26.1408043 38.1923882,25.7781746 Z" id="形状结合"></path>
                    </g>
                </g>
            </g>
        </g>
    </g>
</svg>