<?xml version="1.0" encoding="UTF-8"?>
<svg width="78px" height="52px" viewBox="0 0 78 52" version="1.1" xmlns="http://www.w3.org/2000/svg" xmlns:xlink="http://www.w3.org/1999/xlink">
    <title>btn-</title>
    <g id="页面-1" stroke="none" stroke-width="1" fill="none" fill-rule="evenodd">
        <g id="HOME" transform="translate(-180.000000, -2157.000000)">
            <g id="p2备份-3" transform="translate(0.000000, 1730.000000)">
                <g id="组1" transform="translate(180.000000, 0.000000)">
                    <g id="btn-" transform="translate(0.000000, 427.000000)">
                        <circle id="椭圆形" stroke="#8534F2" cx="26" cy="26" r="25.5"></circle>
                        <circle id="椭圆形备份" stroke="#8534F2" fill="#8534F2" cx="52" cy="26" r="25.5"></circle>
                        <path d="M55.7071068,17.2928932 L64.1923882,25.7781746 C64.5550179,26.1408043 64.58092,26.7126497 64.2700945,27.1051673 L64.1923882,27.1923882 L55.7071068,35.6776695 C55.3165825,36.0681938 54.6834175,36.0681938 54.2928932,35.6776695 C53.9023689,35.2871452 53.9023689,34.6539803 54.2928932,34.263456 L61.071,27.485 L41,27.4852814 C40.4477153,27.4852814 40,27.0375661 40,26.4852814 C40,25.9329966 40.4477153,25.4852814 41,25.4852814 L61.071,25.485 L54.2928932,18.7071068 C53.9023689,18.3165825 53.9023689,17.6834175 54.2928932,17.2928932 C54.6834175,16.9023689 55.3165825,16.9023689 55.7071068,17.2928932 Z" id="形状结合备份" fill="#000000" transform="translate(52.242641, 26.485281) rotate(-45.000000) translate(-52.242641, -26.485281) "></path>
                    </g>
                </g>
            </g>
        </g>
    </g>
</svg>