<?xml version="1.0" encoding="UTF-8"?>
<svg width="96px" height="40px" viewBox="0 0 96 40" version="1.1" xmlns="http://www.w3.org/2000/svg" xmlns:xlink="http://www.w3.org/1999/xlink">
    <title>形状结合</title>
    <defs>
        <linearGradient x1="50%" y1="0%" x2="50%" y2="100%" id="linearGradient-1">
            <stop stop-color="#A062FE" offset="0%"></stop>
            <stop stop-color="#5D66FF" offset="100%"></stop>
        </linearGradient>
    </defs>
    <g id="页面-1" stroke="none" stroke-width="1" fill="none" fill-rule="evenodd">
        <g id="HOME" transform="translate(-180.000000, -24.000000)" fill="url(#linearGradient-1)" fill-rule="nonzero">
            <g id="编组-20备份" transform="translate(180.000000, 24.000000)">
                <path d="M17.1777463,0 C20.4335863,0 23.2361985,1.06666667 25.5855831,3.2 C28.027463,5.42528736 29.2391535,7.89885057 29.2206544,10.6206897 C29.2021553,12.4413793 28.7119294,14.0505747 27.7499767,15.4482759 C26.6585303,17.0482759 25.1693535,17.9678161 23.2824463,18.2068966 C25.3543444,18.7586207 27.1210076,20.0367816 28.5824358,22.0413793 C30.0253649,24.0091954 30.7190808,26.0689655 30.6635835,28.2206897 C30.6080862,31.1632184 29.4888912,33.8022989 27.3059985,36.137931 C24.9381149,38.7126437 22.0615063,40 18.6761727,40 L0,40 L0,0 L17.1777463,0 Z M58.0232462,25.3927551 C59.5120791,25.3927551 60.7500313,25.8335264 61.7371028,26.7150691 L61.7371028,25.8129296 L65.315237,25.8129296 L65.315237,39.5921835 L61.7371028,39.5921835 L61.7371028,38.690044 C60.7500313,39.563348 59.5120791,40 58.0232462,40 C56.0079753,40 54.2888257,39.287351 52.8657976,37.862053 C51.4427695,36.436755 50.7312555,34.7148632 50.7312555,32.6963775 C50.7312555,30.6861306 51.4427695,28.9683582 52.8657976,27.5430602 C54.2888257,26.1095234 56.0079753,25.3927551 58.0232462,25.3927551 Z M73.6930065,25.3927551 C74.3839565,25.3927551 75.0502298,25.4916197 75.6918263,25.6893489 C76.7200257,25.9941814 77.5302469,26.4885044 78.1224899,27.1723179 C78.7887631,27.9220411 79.1218998,28.8283 79.1218998,29.8910945 L75.5437655,29.8910945 L75.5437655,29.8663783 C75.5437655,29.5203522 75.3628024,29.2278778 75.0008762,28.988955 C74.63895,28.7417935 74.2029934,28.6182127 73.6930065,28.6182127 C73.1912451,28.6182127 72.7594013,28.7376741 72.3974751,28.9765969 C72.0355489,29.2237584 71.8545858,29.5162328 71.8545858,29.8540202 C71.8545858,30.2989109 72.2288504,30.6408177 72.9773796,30.8797405 C73.2241475,30.9538889 73.6107505,31.0486342 74.1371886,31.1639762 C74.7541083,31.3040344 75.1982905,31.4111377 75.4697352,31.4852862 C76.571965,31.7901187 77.4027502,32.1979352 77.9620907,32.7087356 C78.7270712,33.4007878 79.1136742,34.3523596 79.1218998,35.563451 C79.1136742,36.609768 78.7764247,37.5036688 78.1101515,38.2451533 C77.5179086,38.9207281 76.7118002,39.4109317 75.6918263,39.7157643 C75.0502298,39.9052548 74.3839565,40 73.6930065,40 C73.0020564,40 72.3398959,39.9052548 71.706525,39.7157643 C70.6783256,39.4109317 69.8639916,38.9166087 69.2635231,38.2327952 C68.6054754,37.483072 68.2764515,36.5768132 68.2764515,35.5140187 L71.8545858,35.5140187 C71.8545858,35.9177158 72.0725641,36.2390258 72.5085206,36.4779486 C72.8704469,36.6756778 73.2652755,36.7745424 73.6930065,36.7745424 C74.2029934,36.7745424 74.6348372,36.655081 74.9885378,36.4161582 C75.350464,36.1689967 75.5355399,35.8765222 75.5437655,35.5387348 C75.5437655,35.1103216 75.1653881,34.7766535 74.4086333,34.5377307 C74.170091,34.4635823 73.783488,34.3647177 73.2488243,34.2411369 C72.6483558,34.1093175 72.2041736,34.0063335 71.9162777,33.9321851 C70.8222735,33.6273525 69.9914883,33.2154167 69.4239222,32.6963775 C68.6671674,32.0043253 68.2846771,31.0527535 68.2764515,29.8416622 C68.2846771,28.7871064 68.6178138,27.8890863 69.2758615,27.1476018 C69.87633,26.4802657 70.6865512,25.9941814 71.706525,25.6893489 C72.3398959,25.4916197 73.0020564,25.3927551 73.6930065,25.3927551 Z M89.1275146,25.0475528 C90.402482,25.0475528 91.5993062,25.3688628 92.7179872,26.0114827 C94.4618136,27.0001287 95.5558178,28.3430396 96,30.0402152 L86.8078966,35.3541876 C87.4988466,36.0050462 88.346083,36.3304755 89.3496057,36.3304755 C89.6621784,36.3304755 89.995315,36.2975207 90.3490156,36.2316109 C91.7062389,35.967972 92.7591152,35.3500682 93.5076444,34.3778996 L95.938308,36.3057594 C94.7867246,38.2253804 92.9236271,39.3252491 90.3490156,39.6053655 C89.9870894,39.646559 89.6333888,39.6671558 89.2879137,39.6671558 C87.1739356,39.6671558 85.4013197,38.9503875 83.970066,37.5168508 C82.5470379,36.0915527 81.8355238,34.3696609 81.8355238,32.3511753 C81.8355238,30.3409284 82.5470379,28.6231559 83.970066,27.1978579 C85.3930941,25.7643212 87.1122436,25.0475528 89.1275146,25.0475528 Z M42.6002539,21.6729744 C44.0479588,21.6729744 45.2941366,22.15082 46.3387873,23.1065112 C47.4245659,24.1033959 47.9633425,25.2115033 47.9551169,26.4308334 C47.9468913,27.2464664 47.728913,27.9673541 47.301182,28.5934966 C46.8158718,29.3102649 46.1537114,29.7222008 45.3147006,29.8293041 C46.2359673,30.0764656 47.0215117,30.6490564 47.6713338,31.5470765 C48.3129303,32.4286192 48.6213901,33.3513555 48.5967133,34.3152854 C48.5720366,35.6334801 48.074388,36.8157359 47.1037677,37.862053 C46.0508914,39.0154733 44.7718112,39.5921835 43.2665272,39.5921835 L35.5303542,39.5921835 L35.5303542,21.6729744 L42.6002539,21.6729744 Z M9.76697686,24.9453216 C4.69117805,29.9340032 1.94801277,35.3261705 3.63986841,36.9891416 C5.33187863,38.6519582 10.8182092,35.9558745 15.894008,30.967193 C20.9698068,25.9785114 23.7129721,20.5863441 22.0211165,18.923373 C20.3291062,17.2605564 14.8427757,19.95664 9.76697686,24.9453216 Z M58.0232462,28.7417935 C56.9950468,28.7417935 56.1190208,29.1290132 55.3951684,29.9034525 C54.6713159,30.6778919 54.3093897,31.6088669 54.3093897,32.6963775 C54.3093897,33.7921269 54.6713159,34.7272212 55.3951684,35.5016606 C56.1190208,36.2678613 56.9950468,36.6509616 58.0232462,36.6509616 C59.0514457,36.6509616 59.9274717,36.2678613 60.6513241,35.5016606 C61.3751766,34.7272212 61.7371028,33.7962462 61.7371028,32.7087356 L61.7371028,32.6963775 C61.7371028,31.6088669 61.3751766,30.6778919 60.6513241,29.9034525 C59.9274717,29.1290132 59.0514457,28.7417935 58.0232462,28.7417935 Z M43.1431433,31.3987796 L39.1084885,31.3987796 L39.1084885,36.1442805 L43.1431433,36.1442805 C43.6120022,36.1442805 44.0150564,35.9589094 44.3523058,35.5881671 C44.7389089,35.1679926 44.9322104,34.5624469 44.9322104,33.7715301 C44.9322104,32.9723746 44.7389089,32.3668289 44.3523058,31.954893 C44.0150564,31.5841508 43.6120022,31.3987796 43.1431433,31.3987796 Z M89.0041307,28.4583816 C88.4118878,28.4583816 87.8484345,28.6066785 87.3137707,28.9032723 C86.047029,29.5953245 85.4136581,30.7034319 85.4136581,32.2275946 C85.4136581,32.3758915 85.4177709,32.5241884 85.4259965,32.6724853 L91.3237487,29.2616565 C90.6986034,28.7920496 90.015879,28.5284107 89.2755753,28.4707397 C89.1850938,28.462501 89.0946122,28.4583816 89.0041307,28.4583816 Z M42.47687,25.1208774 L39.1084885,25.1208774 L39.1084885,28.6429289 L42.47687,28.6429289 C43.0115337,28.6429289 43.4557159,28.4822739 43.8094165,28.1609639 C44.1137636,27.8808476 44.2659371,27.4524343 44.2659371,26.8757241 C44.2659371,26.3072526 44.1137636,25.8829587 43.8094165,25.6028424 C43.4557159,25.2815324 43.0115337,25.1208774 42.47687,25.1208774 Z M8.9641981,8.39237535 C4.37180871,12.9059444 1.8245838,17.7203795 3.27474926,19.1457798 C4.72504026,20.5710546 9.6235497,18.0675484 14.2159391,13.5539794 C18.8083285,9.04041033 21.3555534,4.22597526 19.9053879,2.80057489 C18.4550969,1.37530007 13.5565875,3.87880631 8.9641981,8.39237535 Z M75.3833664,3.70742257 C76.6583338,3.70742257 77.855158,4.02873252 78.973839,4.67135244 C80.7176654,5.65999846 81.8116696,7.0029093 82.2558518,8.70008496 L73.0637484,14.0140573 C73.7546984,14.6649159 74.6019348,14.9903453 75.6054575,14.9903453 C75.9180301,14.9903453 76.2511668,14.9573904 76.6048674,14.8914807 C77.9620907,14.6278417 79.014967,14.009938 79.7634962,13.0377694 L82.1941598,14.9656291 C81.0425764,16.8852501 79.1794789,17.9851188 76.6048674,18.2652352 C76.2429412,18.3064288 75.8892406,18.3270256 75.5437655,18.3270256 C73.4297874,18.3270256 71.6571715,17.6102572 70.2259178,16.1767205 C68.8028897,14.7514225 68.0913756,13.0295307 68.0913756,11.011045 C68.0913756,9.00079813 68.8028897,7.28302567 70.2259178,5.85772766 C71.6489459,4.42419093 73.3680954,3.70742257 75.3833664,3.70742257 Z M47.9427785,0 L47.9427785,3.58384182 L43.0937897,3.58384182 L43.0937897,17.9192091 L39.5156555,17.9192091 L39.5156555,3.58384182 L34.6666667,3.58384182 L34.6666667,0 L47.9427785,0 Z M54.1119754,0 L54.1119754,5.35104657 C54.9509862,4.26353595 56.1889384,3.71978064 57.8258319,3.71978064 C59.8411029,3.71978064 61.5643653,4.43242965 62.995619,5.85772766 C64.4186471,7.29126439 65.1301611,9.0131562 65.1301611,11.0234031 L65.1301611,17.9192091 L61.5520269,17.9192091 L61.5520269,11.0234031 C61.5520269,10.0018022 61.1901007,9.12849824 60.4662482,8.40349116 C59.7341702,7.67024536 58.8540314,7.30362246 57.8258319,7.30362246 C56.8058581,7.30362246 55.9298321,7.67024536 55.1977541,8.40349116 C54.4739016,9.12025952 54.1119754,9.9935635 54.1119754,11.0234031 L54.1119754,17.9192091 L50.5338412,17.9192091 L50.5338412,0 L54.1119754,0 Z M75.2599825,7.11825133 C74.6677396,7.11825133 74.1042863,7.26654824 73.5696225,7.56314204 C72.3028807,8.25519425 71.6695099,9.36330167 71.6695099,10.8874643 C71.6695099,11.0357612 71.6736227,11.1840581 71.6818483,11.332355 L77.5796005,7.92152622 C76.9544552,7.45191936 76.2717308,7.18828043 75.5314271,7.13060941 C75.4409456,7.12237069 75.350464,7.11825133 75.2599825,7.11825133 Z M92.976,0 C93.3866667,0 93.772,0.0786666667 94.132,0.236 C94.492,0.393333333 94.8066667,0.606666667 95.076,0.876 C95.3453333,1.14533333 95.5586667,1.46 95.716,1.82 C95.8733333,2.18 95.952,2.56533333 95.952,2.976 C95.952,3.38666667 95.8733333,3.772 95.716,4.132 C95.5586667,4.492 95.3453333,4.80666667 95.076,5.076 C94.8066667,5.34533333 94.492,5.55866667 94.132,5.716 C93.772,5.87333333 93.3866667,5.952 92.976,5.952 C92.5653333,5.952 92.18,5.87333333 91.82,5.716 C91.46,5.55866667 91.1453333,5.34533333 90.876,5.076 C90.6066667,4.80666667 90.3933333,4.492 90.236,4.132 C90.0786667,3.772 90,3.38666667 90,2.976 C90,2.56533333 90.0786667,2.18 90.236,1.82 C90.3933333,1.46 90.6066667,1.14533333 90.876,0.876 C91.1453333,0.606666667 91.46,0.393333333 91.82,0.236 C92.18,0.0786666667 92.5653333,0 92.976,0 Z M92.976,0.672 C92.6666667,0.672 92.3773333,0.732 92.108,0.852 C91.8386667,0.972 91.6053333,1.136 91.408,1.344 C91.2106667,1.552 91.0546667,1.796 90.94,2.076 C90.8253333,2.356 90.768,2.656 90.768,2.976 C90.768,3.296 90.8253333,3.596 90.94,3.876 C91.0546667,4.156 91.2106667,4.4 91.408,4.608 C91.6053333,4.816 91.8386667,4.98 92.108,5.1 C92.3773333,5.22 92.6666667,5.28 92.976,5.28 C93.2853333,5.28 93.5746667,5.22 93.844,5.1 C94.1133333,4.98 94.3466667,4.816 94.544,4.608 C94.7413333,4.4 94.8973333,4.156 95.012,3.876 C95.1266667,3.596 95.184,3.296 95.184,2.976 C95.184,2.656 95.1266667,2.356 95.012,2.076 C94.8973333,1.796 94.7413333,1.552 94.544,1.344 C94.3466667,1.136 94.1133333,0.972 93.844,0.852 C93.5746667,0.732 93.2853333,0.672 92.976,0.672 Z M92.832,1.384 C93.0133333,1.384 93.188,1.39733333 93.356,1.424 C93.524,1.45066667 93.6733333,1.49733333 93.804,1.564 C93.9346667,1.63066667 94.04,1.724 94.12,1.844 C94.2,1.964 94.24,2.11733333 94.24,2.304 C94.24,2.44266667 94.2186667,2.56933333 94.176,2.684 C94.1333333,2.79866667 94.0786667,2.896 94.012,2.976 C93.9453333,3.056 93.8706667,3.12133333 93.788,3.172 C93.7053333,3.22266667 93.6213333,3.25333333 93.536,3.264 L94.336,4.504 L93.496,4.504 L92.784,3.304 L92.6,3.304 L92.6,4.504 L91.832,4.504 L91.832,1.384 L92.832,1.384 Z M92.968,2.008 L92.592,2.008 L92.592,2.68 L92.968,2.68 C93.016,2.68 93.0693333,2.67733333 93.128,2.672 C93.1866667,2.66666667 93.2413333,2.65333333 93.292,2.632 C93.3426667,2.61066667 93.3853333,2.57733333 93.42,2.532 C93.4546667,2.48666667 93.472,2.424 93.472,2.344 C93.472,2.264 93.4546667,2.20133333 93.42,2.156 C93.3853333,2.11066667 93.3426667,2.07733333 93.292,2.056 C93.2413333,2.03466667 93.1866667,2.02133333 93.128,2.016 C93.0693333,2.01066667 93.016,2.008 92.968,2.008 Z" id="形状结合"></path>
            </g>
        </g>
    </g>
</svg>